<?xml version="1.0" standalone="no"?>
<!DOCTYPE svg PUBLIC "-//W3C//DTD SVG 20010904//EN"
 "http://www.w3.org/TR/2001/REC-SVG-20010904/DTD/svg10.dtd">
<svg version="1.0" xmlns="http://www.w3.org/2000/svg"
 width="220.000000pt" height="220.000000pt" viewBox="0 0 220.000000 220.000000"
 preserveAspectRatio="xMidYMid meet">
<metadata>
Created by potrace 1.15, written by Peter Selinger 2001-2017
</metadata>
<g transform="translate(0.000000,220.000000) scale(0.100000,-0.100000)"
fill="#000000" stroke="none">
<path d="M930 2118 c-101 -21 -170 -41 -187 -54 -17 -13 -17 -13 0 -14 9 0 25
4 35 10 9 5 40 14 67 20 256 57 523 27 715 -82 8 -4 25 -13 38 -18 92 -39 263
-198 341 -315 104 -156 156 -297 171 -466 9 -106 -4 -349 -20 -359 -4 -3 -11
-20 -15 -38 -4 -18 -13 -45 -21 -60 -8 -15 -14 -32 -14 -39 0 -12 -39 -94 -49
-103 -4 -3 -15 -23 -26 -44 -11 -22 -24 -44 -30 -50 -5 -6 -28 -34 -50 -61
-45 -57 -71 -82 -135 -134 -25 -20 -47 -38 -50 -41 -5 -6 -51 -36 -82 -55 -14
-8 -93 -48 -148 -75 -9 -4 -31 -11 -50 -15 -19 -4 -39 -11 -45 -15 -17 -13
-145 -32 -248 -37 -136 -7 -306 25 -427 79 -127 58 -118 53 -226 135 -122 93
-241 237 -299 360 -11 24 -23 43 -27 43 -13 0 -10 -9 23 -74 65 -128 200 -287
301 -354 21 -13 38 -29 38 -33 0 -5 6 -9 14 -9 8 0 21 -6 28 -13 19 -18 105
-62 168 -86 85 -33 207 -59 298 -64 95 -6 277 7 325 22 126 40 159 53 217 82
111 56 182 108 281 209 66 66 112 125 148 184 28 49 51 91 51 94 0 4 6 18 13
32 20 40 43 109 63 190 23 93 26 325 5 415 -15 69 -52 186 -72 230 -66 145
-203 319 -311 392 -21 14 -38 29 -38 33 0 4 -8 10 -17 14 -10 3 -31 15 -48 25
-60 39 -198 101 -224 101 -9 0 -21 4 -27 9 -31 30 -350 51 -454 29z"/>
<path d="M670 2039 c-25 -12 -54 -25 -65 -30 -99 -46 -278 -202 -349 -307 -20
-28 -36 -56 -36 -61 0 -4 -7 -14 -15 -21 -14 -12 -70 -122 -93 -185 -28 -75
-45 -190 -49 -324 -4 -124 -1 -158 18 -245 13 -56 31 -117 41 -136 24 -49 23
-13 -3 62 -59 175 -56 437 7 613 14 39 28 79 32 90 3 11 18 42 34 68 15 26 28
50 28 53 0 8 72 106 104 142 51 57 123 123 163 150 21 14 40 28 43 31 8 10 41
28 118 67 39 20 72 40 72 45 0 11 3 12 -50 -12z"/>
<path d="M369 1367 c-28 -22 -37 -48 -28 -85 8 -38 20 -49 59 -58 42 -10 70
-27 70 -43 -1 -43 -49 -62 -79 -32 -30 30 -51 27 -51 -8 0 -34 14 -41 83 -41
58 0 66 4 90 40 35 50 9 109 -54 124 -64 15 -86 66 -36 82 15 5 25 1 35 -15 8
-11 23 -21 34 -21 16 0 19 6 16 33 -3 32 -3 32 -63 34 -36 2 -66 -2 -76 -10z"/>
<path d="M560 1361 c0 -11 5 -23 10 -26 6 -3 10 -48 10 -101 0 -56 -4 -94 -10
-94 -5 0 -10 -9 -10 -20 0 -18 7 -20 55 -20 42 0 55 4 55 15 0 8 -9 19 -20 25
-12 6 -20 21 -20 35 0 23 4 25 41 25 71 0 108 31 109 93 0 27 -7 45 -25 62
-22 23 -32 25 -110 25 -77 0 -85 -2 -85 -19z"/>
<path d="M810 1367 c0 -7 6 -19 13 -25 8 -9 12 -44 12 -103 0 -60 -4 -94 -12
-101 -7 -6 -13 -17 -13 -24 0 -11 21 -14 95 -14 l95 0 0 35 c0 37 -10 44 -30
20 -7 -8 -28 -15 -46 -15 -33 0 -34 1 -34 41 l0 42 45 -5 45 -6 0 34 c0 24 -5
34 -15 34 -8 0 -15 -5 -15 -11 0 -6 -12 -9 -27 -7 -24 3 -28 8 -31 41 -3 34
-1 37 24 37 15 0 35 -7 45 -16 23 -21 39 -10 39 27 l0 29 -95 0 c-71 0 -95 -3
-95 -13z"/>
<path d="M1083 1361 c-32 -27 -43 -62 -43 -136 0 -54 4 -68 26 -94 24 -29 31
-31 89 -31 43 0 66 5 75 15 19 23 4 32 -47 28 -75 -6 -89 16 -84 138 1 30 6
39 33 52 36 18 54 14 61 -14 7 -28 36 -23 47 7 9 21 7 29 -7 40 -28 21 -123
17 -150 -5z"/>
<path d="M1285 1353 c8 -32 7 -172 -1 -220 l-6 -33 45 0 c52 0 66 13 43 39
-23 26 -23 196 0 209 28 16 6 32 -43 32 -44 0 -45 0 -38 -27z"/>
<path d="M1492 1363 c-6 -10 -13 -35 -17 -56 -4 -20 -11 -40 -16 -43 -5 -3 -9
-17 -9 -31 0 -27 -28 -83 -47 -96 -7 -4 -13 -15 -13 -22 0 -11 12 -15 44 -15
48 0 65 13 47 34 -26 31 14 63 62 51 29 -8 39 -25 26 -46 -19 -30 -10 -39 41
-39 52 0 62 10 36 39 -7 9 -21 39 -31 66 -9 28 -23 64 -30 80 -7 17 -17 44
-22 60 -10 37 -55 48 -71 18z"/>
<path d="M1680 1366 c0 -8 5 -18 10 -21 6 -3 10 -50 10 -105 0 -55 -4 -102
-10 -105 -5 -3 -10 -13 -10 -21 0 -11 16 -14 75 -14 49 0 75 4 75 11 0 8 4 9
13 0 18 -15 25 -6 19 24 -5 26 -16 32 -27 15 -3 -5 -22 -10 -41 -10 -37 0 -34
-7 -38 88 -1 9 -5 20 -11 24 -6 5 -5 8 2 8 8 0 12 14 11 40 -1 21 4 45 10 53
17 20 5 27 -45 27 -31 0 -43 -4 -43 -14z"/>
<path d="M529 1012 c-60 -36 -77 -164 -31 -230 27 -37 86 -50 150 -32 41 11
42 12 42 55 0 24 5 45 12 47 24 8 -5 28 -42 28 -37 0 -66 -20 -42 -28 7 -2 12
-17 12 -33 0 -40 -42 -51 -73 -20 -18 18 -22 33 -22 92 0 77 8 89 61 89 20 0
34 -6 38 -16 9 -23 50 -14 54 13 7 45 -102 70 -159 35z"/>
<path d="M734 1015 c-4 -9 -2 -21 5 -28 6 -6 11 -45 11 -93 0 -104 9 -129 52
-143 36 -11 112 -1 131 18 6 6 12 52 15 103 2 51 8 103 14 115 13 27 12 29
-27 37 -41 8 -64 -7 -49 -32 11 -17 18 -89 15 -160 -1 -24 -7 -35 -25 -43 -29
-13 -66 3 -66 28 0 10 -12 28 -27 41 -26 22 -27 23 -5 19 20 -5 22 -1 24 36 0
23 1 48 1 55 -1 6 3 12 8 12 5 0 9 9 9 20 0 12 -7 20 -17 20 -10 0 -28 3 -40
6 -16 4 -25 1 -29 -11z"/>
<path d="M1270 1012 c-33 -16 -35 -20 -35 -67 0 -49 1 -50 45 -72 25 -12 53
-22 63 -22 22 -1 24 -56 1 -65 -29 -11 -53 -6 -64 14 -15 29 -47 26 -52 -5 -7
-35 13 -48 81 -49 50 -1 63 3 85 23 29 28 34 56 10 65 -14 5 -14 9 -3 22 12
15 10 19 -10 33 -14 9 -41 21 -60 26 -28 8 -37 16 -39 37 -5 38 34 49 59 17
15 -20 22 -22 36 -13 32 20 28 50 -8 63 -44 15 -68 14 -109 -7z"/>
<path d="M1478 1022 c-33 -3 -38 -7 -38 -28 0 -15 6 -24 15 -24 8 0 15 4 15 8
0 7 10 8 52 3 4 -1 7 -9 7 -18 0 -10 0 -51 1 -92 0 -41 -4 -79 -10 -85 -23
-23 -10 -36 35 -36 33 0 45 4 45 14 0 8 -4 18 -10 21 -6 3 -10 49 -10 102 l0
96 45 -6 c43 -6 45 -5 45 17 0 23 -3 25 -77 28 -43 2 -95 2 -115 0z"/>
<path d="M1000 1006 c0 -8 5 -18 10 -21 6 -3 10 -48 10 -100 0 -52 -4 -97 -10
-100 -5 -3 -10 -13 -10 -21 0 -11 19 -14 95 -14 l95 0 0 30 c0 33 -13 38 -36
15 -24 -24 -63 -19 -74 9 -15 41 -6 61 28 64 18 2 32 -1 32 -7 0 -6 7 -11 15
-11 10 0 15 11 15 35 l0 35 -44 -6 c-48 -7 -61 3 -52 40 8 31 52 40 75 17 24
-24 41 -15 41 20 l0 29 -95 0 c-76 0 -95 -3 -95 -14z"/>
</g>
</svg>
